<svg xmlns="http://www.w3.org/2000/svg" xmlns:xlink="http://www.w3.org/1999/xlink" viewBox="0 0 587.12 250.44"><defs><style>.cls-1{fill:url(#linear-gradient);}.cls-2{fill:url(#linear-gradient-2);}.cls-3{fill:url(#linear-gradient-3);}.cls-4{fill:url(#linear-gradient-4);}.cls-5{fill:url(#linear-gradient-5);}.cls-6{fill:url(#linear-gradient-6);}.cls-7{fill:url(#linear-gradient-7);}.cls-8{fill:url(#linear-gradient-8);}.cls-9{fill:url(#linear-gradient-9);}.cls-10{fill:url(#linear-gradient-10);}.cls-11{fill:url(#linear-gradient-11);}.cls-12{fill:url(#linear-gradient-12);}.cls-13{fill:url(#linear-gradient-13);}.cls-14{fill:url(#linear-gradient-14);}.cls-15{fill:url(#linear-gradient-15);}.cls-16{fill:url(#linear-gradient-16);}.cls-17{fill:url(#linear-gradient-17);}.cls-18{fill:url(#linear-gradient-18);}.cls-19{fill:url(#linear-gradient-19);}.cls-20{fill:url(#linear-gradient-20);}.cls-21{fill:url(#linear-gradient-21);}.cls-22{fill:url(#linear-gradient-22);}.cls-23{fill:#bd202f;}.cls-24{fill:#bf202f;}.cls-25{fill:#231f20;}</style><linearGradient id="linear-gradient" x1="167.14" y1="52.92" x2="167.14" y2="128.77" gradientUnits="userSpaceOnUse"><stop offset="0" stop-color="#299dd3"/><stop offset="1" stop-color="#282b66"/></linearGradient><linearGradient id="linear-gradient-2" x1="205.29" y1="49.14" x2="205.29" y2="128.77" xlink:href="#linear-gradient"/><linearGradient id="linear-gradient-3" x1="119.91" y1="157.58" x2="119.91" y2="237.21" xlink:href="#linear-gradient"/><linearGradient id="linear-gradient-4" x1="47.97" y1="66.16" x2="47.97" y2="112.69" xlink:href="#linear-gradient"/><linearGradient id="linear-gradient-5" x1="272.57" y1="52.92" x2="272.57" y2="128.77" xlink:href="#linear-gradient"/><linearGradient id="linear-gradient-6" x1="453.8" y1="52.92" x2="453.8" y2="128.77" xlink:href="#linear-gradient"/><linearGradient id="linear-gradient-7" x1="374.26" y1="52.92" x2="374.26" y2="128.78" xlink:href="#linear-gradient"/><linearGradient id="linear-gradient-8" x1="417.1" y1="52.92" x2="417.1" y2="129.23" xlink:href="#linear-gradient"/><linearGradient id="linear-gradient-9" x1="490.31" y1="52.92" x2="490.31" y2="128.77" xlink:href="#linear-gradient"/><linearGradient id="linear-gradient-10" x1="200.03" y1="161.93" x2="200.03" y2="237.78" xlink:href="#linear-gradient"/><linearGradient id="linear-gradient-11" x1="156.87" y1="161.93" x2="156.87" y2="237.21" xlink:href="#linear-gradient"/><linearGradient id="linear-gradient-12" x1="86.35" y1="51.61" x2="86.35" y2="129.89" xlink:href="#linear-gradient"/><linearGradient id="linear-gradient-13" x1="126.1" y1="52.92" x2="126.1" y2="128.77" xlink:href="#linear-gradient"/><linearGradient id="linear-gradient-14" x1="232.9" y1="52.92" x2="232.9" y2="128.77" xlink:href="#linear-gradient"/><linearGradient id="linear-gradient-15" x1="326.82" y1="52.92" x2="326.82" y2="128.77" xlink:href="#linear-gradient"/><linearGradient id="linear-gradient-16" x1="529.81" y1="52.91" x2="529.81" y2="128.77" xlink:href="#linear-gradient"/><linearGradient id="linear-gradient-17" x1="384.56" y1="163.11" x2="384.56" y2="238.96" xlink:href="#linear-gradient"/><linearGradient id="linear-gradient-18" x1="305.02" y1="163.12" x2="305.02" y2="238.97" xlink:href="#linear-gradient"/><linearGradient id="linear-gradient-19" x1="347.86" y1="163.11" x2="347.86" y2="239.42" xlink:href="#linear-gradient"/><linearGradient id="linear-gradient-20" x1="421.07" y1="163.11" x2="421.07" y2="238.96" xlink:href="#linear-gradient"/><linearGradient id="linear-gradient-21" x1="257.58" y1="163.12" x2="257.58" y2="238.96" xlink:href="#linear-gradient"/><linearGradient id="linear-gradient-22" x1="460.57" y1="163.11" x2="460.57" y2="238.96" xlink:href="#linear-gradient"/></defs><title>mediaupload_logo</title><g id="Layer_7" data-name="Layer 7"><path class="cls-1" d="M184.56,52.92h-17a6.29,6.29,0,0,0-3.93,1.15,13.23,13.23,0,0,0-3.23,4.46c-.68,1.63-2,4.75-3.07,12.71-.82,6.4-1.11,8.94-1.14,10.94A17,17,0,0,0,157.73,90c1.58,2.85,3.16,4,6.54,6.71,3,2.39,6.47,4.14,5.75,9.46-.21,1.58-.91,4.85-2.49,6s-4.5.91-5.36.91-4.34,0-5.66-.07a4.41,4.41,0,0,1-3.06-1.07,5.56,5.56,0,0,1-.89-3.53h-.88s-1.82,15-1.9,15.66a4.16,4.16,0,0,0,.85,3.46,3.28,3.28,0,0,0,2.64,1.19h16.25c2.67,0,4.67-1.84,5.8-3.29a26.56,26.56,0,0,0,3.8-8.74c.82-3.53,2.44-11.85,2.58-17.25.13-4.76,1-8.07-2.94-13.48-2.18-3-9.76-6.8-10.39-10.33-.27-1.54,0-5.86,1.73-8.09a3.33,3.33,0,0,1,1.68-1c2.46-.44,7.25-.11,9.47-.4,1.19-.16,1.89-1.27,2.13-3.07C183.52,62.13,184.56,52.92,184.56,52.92Z"/><path class="cls-2" d="M206.83,52.92H192.72c-1.51,0-1.81.46-2.06.87a8.1,8.1,0,0,0-.58,2.42c-.2,1.37-2.11,14.65-2.11,14.65h.73s.56-2.94,2-3.39a8,8,0,0,1,2.56-.29l4.7,0s-7.27,55.09-7.44,56.57c-.27,2.37,0,3.78.71,4.43s2,.62,3.82.62h10.37l.32-2s-1.73-.23-2.13-2.9,7.2-56.79,7.2-56.79h7.34a2,2,0,0,0,2.21-1.63c.27-1.35,2.29-16.33,2.29-16.33h-.88a4.86,4.86,0,0,1-1.28,2.72,4.15,4.15,0,0,1-2.69,1.06Z"/><path class="cls-3" d="M121.45,161.36H107.33c-1.5,0-1.81.46-2,.86a7.9,7.9,0,0,0-.59,2.43c-.2,1.37-2.1,14.65-2.1,14.65h.72s.57-2.94,2-3.4a7.89,7.89,0,0,1,2.55-.28l4.71,0s-7.28,55.08-7.44,56.57c-.28,2.36,0,3.78.71,4.42s2,.63,3.82.63H120l.32-2s-1.72-.22-2.13-2.89,7.2-56.79,7.2-56.79l7.34,0a2,2,0,0,0,2.22-1.62c.26-1.35,2.29-16.33,2.29-16.33h-.89a4.78,4.78,0,0,1-1.28,2.72,4.13,4.13,0,0,1-2.69,1.06Z"/><path class="cls-4" d="M65.31,52.89l-17.15,0a10.52,10.52,0,0,0-5.6,2,14.4,14.4,0,0,0-3.88,5.59c-1.85,4-3.23,9-5.93,29.17s-2.28,25.92-1.64,29.49c.92,5.13,2.56,7.31,5,9,1.31.9,2.79,1.13,5.09,1.13H55.53c1.51,0,2.9-2.21,3.42-4S61.39,109,61.39,109l-.66-.06s-.5,4.87-3.86,4.87c-3,0-6.82.21-8.52-.11-.91-.16-2-.5-3.35-2.72s-.55-11,.59-19.42C46.82,82.5,48.47,73.78,49,72.1c.92-3.22,1.55-3.56,2.34-4.22A4.78,4.78,0,0,1,54.08,67c1.25,0,6.12.07,7.05.07a2.55,2.55,0,0,0,2-.84,6.77,6.77,0,0,0,.89-2.93C64.27,61.84,65.31,52.89,65.31,52.89Z"/><path class="cls-5" d="M263.06,89l-4.76,35.26c-.28,2.12.07,3.11.55,3.67s1.35.81,2.73.81h20a2.61,2.61,0,0,0,2.51-1.43,41.5,41.5,0,0,0,.95-4.81c.17-1.1,1.93-13.3,1.93-13.3h-.86s-.24,4.48-4.64,4.69h-8.87s7.15-55.14,7.22-55.76a12.46,12.46,0,0,0,0-3.69,1.68,1.68,0,0,0-1.5-1.41,13.89,13.89,0,0,0-2.38-.14H265.09l-.23,1.75a4.41,4.41,0,0,1,1.87,2.68,17.19,17.19,0,0,1-.2,5C266.38,63.49,263.06,89,263.06,89Z"/><path class="cls-6" d="M444.29,89l-4.76,35.26c-.28,2.12.07,3.11.55,3.67s1.35.81,2.73.81h20a2.61,2.61,0,0,0,2.51-1.43,41.5,41.5,0,0,0,.95-4.81c.17-1.1,1.93-13.3,1.93-13.3h-.86s-.24,4.48-4.64,4.69H453.8S461,58.78,461,58.16a12.46,12.46,0,0,0,0-3.69,1.68,1.68,0,0,0-1.5-1.41,13.89,13.89,0,0,0-2.38-.14H446.32l-.23,1.75A4.41,4.41,0,0,1,448,57.35a17.19,17.19,0,0,1-.2,5C447.61,63.49,444.29,89,444.29,89Z"/><path class="cls-7" d="M352.28,124.42a5.86,5.86,0,0,0,.35,3.52c.3.5.82.83,2,.83h10.68l.2-1.92c-1.28,0-2.85-1.77-2.56-4.36.26-2.38,4.17-32.2,4.17-32.2l1.16,0,4.85,22.91S375.77,126,376,126.67c.57,1.57,1,2,2.17,2.1.49,0,8.7-.12,8.7-.12s9.25-70.74,9.42-72.79a3,3,0,0,0-.56-2.09,2.56,2.56,0,0,0-2.31-.85h-9.79l-.31,1.73A3.38,3.38,0,0,1,385,56.47a7.13,7.13,0,0,1,.29,3.84l-3.57,26.2h-1S374.23,55.69,374,54.6c-.21-.84-.59-1.68-1.77-1.68H358.62l-.17,1.72a3.37,3.37,0,0,1,1.84,3.24C360.13,60.18,353.06,116.28,352.28,124.42Z"/><path class="cls-8" d="M436.48,52.92H414.83a8.36,8.36,0,0,0-7,3.46c-3.85,5.64-4.25,9.93-5.89,17.91-.83,4.07-2.55,18.46-2.88,21.12s-1.88,13.69-1.16,21.36c.45,4.79,2,8.66,3.18,9.94,1.77,1.92,3.74,2.52,7.69,2.52H425c2.43,0,3.86-2.34,4.53-4s1.33-7.56,1.67-9.88,3.88-28.44,3.93-30c0-1.19.15-2.46-.39-3.32a2.21,2.21,0,0,0-2-.93c-.89,0-13.21-.17-13.21-.17s-1.08,8-1.16,8.74-.36,2.33.41,3.25a2.4,2.4,0,0,0,2.07.7l2.38,0s-1.13,8.88-1.39,11.31c-.45,4.35-1.6,8.82-5.72,8.82-6.36,0-5.3-9.1-3.94-19.1.23-1.63,2.36-17,2.36-17,.82-5.78,2.2-10.66,6.33-10.66,7.42,0,9.72.07,10.29.07,1.66,0,3.27.17,3.91-2.91C435.38,62.73,436.48,52.92,436.48,52.92Z"/><path class="cls-9" d="M508.38,52.92H478.94l-.3,1.91a3.08,3.08,0,0,1,1.83,1.75,7.94,7.94,0,0,1,.27,4c-.17,1.26-8.39,62.87-8.43,63.37-.17,1.85-.13,3.2.73,4.17a2.7,2.7,0,0,0,2.18.66h23.71a2.56,2.56,0,0,0,1.81-.93,4.5,4.5,0,0,0,.87-2.27l2.28-16.6h-.77a12.17,12.17,0,0,1-.22,1.86,4,4,0,0,1-3.33,2.9c-1.11,0-13,.12-13,.12l2.35-19h10.3a2.83,2.83,0,0,0,2.38-1.11,8.67,8.67,0,0,0,1-3.33c.07-.63,1.26-9.81,1.26-9.81l-13.11.05,1.81-14.31,11.6.1a2.43,2.43,0,0,0,2.12-1.19,11,11,0,0,0,.87-3C507.29,61.43,508.38,52.92,508.38,52.92Z"/><path class="cls-10" d="M218.11,161.93H188.67l-.3,1.92a3,3,0,0,1,1.83,1.74,7.83,7.83,0,0,1,.26,4c-.16,1.26-8.38,62.87-8.43,63.37-.16,1.86-.13,3.2.73,4.17a2.72,2.72,0,0,0,2.19.66h23.7a2.61,2.61,0,0,0,1.82-.93,4.54,4.54,0,0,0,.86-2.27l2.28-16.6h-.77a11.38,11.38,0,0,1-.21,1.86,4,4,0,0,1-3.34,2.9c-1.11,0-13,.12-13,.12l2.35-19h10.29a2.85,2.85,0,0,0,2.39-1.11,8.65,8.65,0,0,0,1-3.33l1.26-9.81-13.1,0,1.81-14.31,11.6.1a2.42,2.42,0,0,0,2.11-1.19,10.64,10.64,0,0,0,.87-3C217,170.44,218.11,161.93,218.11,161.93Z"/><path class="cls-11" d="M140.66,162.24h11.53c.88,0,1.37.38,1.52,1a6.83,6.83,0,0,1,0,2.12c-.07.76-3.89,25-3.89,25h18s3.47-24.38,3.52-25a8.53,8.53,0,0,0,0-2.08,2.65,2.65,0,0,0-.57-1.34h11c.62,0,1.11.44,1.2,1.54a13.26,13.26,0,0,1-.27,3.4s-10.47,64.27-10.54,64.92a10.34,10.34,0,0,0,0,2.41,7.11,7.11,0,0,0,1.31,3H162.72a2,2,0,0,1-1.88-.86,4.66,4.66,0,0,1-.27-2.8c.12-.88,5.25-30.4,5.25-30.4L148,203.4s-5.21,29.63-5.32,30.35a4,4,0,0,0,.3,2.35,3.16,3.16,0,0,0,1.23,1.11H131.7c-.87,0-1.1-.81-1-1.58.1-.94,10.9-70.6,10.9-70.6a3.24,3.24,0,0,0-.07-1.79A5.45,5.45,0,0,0,140.66,162.24Z"/><path class="cls-12" d="M104.33,57.56c-2-3.61-6.22-6-12.16-6C86.6,51.61,81.8,53,78.89,55.7c-3.64,3.4-6.55,5.57-9.74,24a184.32,184.32,0,0,0-3,31c0,5.12.58,8.91,1.25,10.72,1.17,3.18,4,8.49,13.21,8.49,7.63,0,11.39-2.19,13.45-4.12s3.15-3.64,5.22-8.36,4.23-16.6,5.2-22.78a139.82,139.82,0,0,0,1.94-20.84C106.71,64.21,105.91,60.48,104.33,57.56ZM90.93,92c-1.42,11.17-3.27,17-4.58,19.61-1,2-2.27,2.38-3.16,2.38s-2.48-1.09-2.84-3.67c-.49-3.52.49-13.7,1.86-22.21s2.92-15.24,3.49-16.62,1.51-3.77,3.81-3.65c2,.11,2.59,1.93,2.84,3.49C92.83,74.38,92.27,81.45,90.93,92Z"/><path class="cls-13" d="M145.44,125.5a7.28,7.28,0,0,1-.88-3.07c-.07-.93-1.82-66.76-1.82-67.27a2.55,2.55,0,0,0-.63-1.72c-.42-.35-.58-.52-1.81-.52H123l-.16,1.73a3.38,3.38,0,0,1,1.84,3.23c-.16,2.31-7.1,25.64-7.1,25.64s-11.9,40.17-12.21,41.24c-.4,1.4-.33,2.67.37,3.37a2.26,2.26,0,0,0,1.85.64h10.67l.2-1.92a3.89,3.89,0,0,1-1.84-3.43,39.69,39.69,0,0,1,1.56-7.34l1.45-5.61h12.5s.13,14.41.15,15.16c0,1.68.34,2.23.78,2.6a2.44,2.44,0,0,0,1.77.47l12,0,.24-1.81A3.32,3.32,0,0,1,145.44,125.5ZM124.17,97.18l6.25-24.33.29,24.33Z"/><path class="cls-14" d="M252.25,125.5a7.16,7.16,0,0,1-.89-3.07c-.07-.93-1.81-66.76-1.81-67.27a2.55,2.55,0,0,0-.63-1.72c-.42-.35-.58-.52-1.82-.52H229.81l-.16,1.73a3.36,3.36,0,0,1,1.83,3.23c-.16,2.31-7.1,25.64-7.1,25.64s-11.9,40.17-12.2,41.24c-.41,1.4-.33,2.67.36,3.37a2.28,2.28,0,0,0,1.86.64h10.67l.2-1.92a3.91,3.91,0,0,1-1.85-3.43,39.44,39.44,0,0,1,1.57-7.34l1.44-5.61h12.5s.14,14.41.15,15.16c0,1.68.35,2.23.78,2.6a2.48,2.48,0,0,0,1.78.47l12,0,.25-1.81A3.27,3.27,0,0,1,252.25,125.5ZM231,97.18l6.24-24.33.3,24.33Z"/><path class="cls-15" d="M346.17,125.5a7.16,7.16,0,0,1-.89-3.07c-.07-.93-1.81-66.76-1.81-67.27a2.55,2.55,0,0,0-.63-1.72c-.42-.35-.58-.52-1.82-.52H323.73l-.17,1.73a3.37,3.37,0,0,1,1.84,3.23c-.16,2.31-7.1,25.64-7.1,25.64s-11.9,40.17-12.21,41.24c-.4,1.4-.33,2.67.37,3.37a2.27,2.27,0,0,0,1.85.64H319l.2-1.92a3.91,3.91,0,0,1-1.85-3.43,39.44,39.44,0,0,1,1.57-7.34l1.44-5.61h12.5s.14,14.41.15,15.16c0,1.68.35,2.23.78,2.6a2.48,2.48,0,0,0,1.78.47l12,0,.25-1.81A3.27,3.27,0,0,1,346.17,125.5ZM324.89,97.18l6.25-24.33.3,24.33Z"/><path class="cls-16" d="M544.23,92.08c1.17-1.53,4.91-7.13,6-20.85.77-9.6-.41-15-2.45-16.85-1.64-1.47-4.43-1.47-5.47-1.47H516L515.38,55a2.56,2.56,0,0,1,2,1.49,5.13,5.13,0,0,1,.23,3c-.26,1.77-8.25,64.47-8.43,65.91a3.53,3.53,0,0,0,.54,2.5,2.25,2.25,0,0,0,1.82.9h12.61l.31-1.87a3.11,3.11,0,0,1-1.92-2c-.46-1.37-.38-2.55-.09-4.77.26-2,3.42-25.22,3.42-25.22h2.43s5.43,31.24,5.61,32.05c.28,1.28.73,1.82,2.13,1.82h7.27a2.31,2.31,0,0,0,2.25-1.82c.21-.82,1.79-13.06,1.79-13.06a5.65,5.65,0,0,1-2.25-.28c-1-.43-1.24-1.2-1.64-2.39l-3.83-16.17A8.42,8.42,0,0,0,544.23,92.08Zm-7.45-17.35c-.32,2.74-.86,4.75-2.18,6.22a3.46,3.46,0,0,1-2.66,1.21h-3.18l1.71-14.63h3.72c1.37,0,2.32.55,2.46,1.39A22.53,22.53,0,0,1,536.78,74.73Z"/><path class="cls-17" d="M375.05,199.22l-4.76,35.27c-.28,2.12.07,3.1.55,3.66s1.35.81,2.73.81h20a2.61,2.61,0,0,0,2.51-1.43,40.75,40.75,0,0,0,.95-4.8c.17-1.11,1.93-13.3,1.93-13.3h-.86s-.24,4.48-4.64,4.68h-8.87s7.15-55.13,7.22-55.76a12.46,12.46,0,0,0,0-3.69,1.69,1.69,0,0,0-1.5-1.41,13.46,13.46,0,0,0-2.38-.13H377.08l-.23,1.75a4.41,4.41,0,0,1,1.87,2.67,17.17,17.17,0,0,1-.2,5.05C378.37,173.69,375.05,199.22,375.05,199.22Z"/><path class="cls-18" d="M283,234.62a5.88,5.88,0,0,0,.35,3.52c.3.5.82.82,2,.82h10.68l.2-1.92c-1.28,0-2.85-1.77-2.56-4.35.26-2.39,4.17-32.21,4.17-32.21l1.16,0,4.85,22.92s2.64,12.73,2.89,13.43c.57,1.57,1,2,2.17,2.11.49,0,8.7-.13,8.7-.13s9.25-70.74,9.42-72.79a3,3,0,0,0-.56-2.08,2.56,2.56,0,0,0-2.31-.85h-9.79l-.31,1.73a3.36,3.36,0,0,1,1.67,1.81,7.14,7.14,0,0,1,.29,3.84l-3.57,26.2h-1s-6.53-30.82-6.8-31.91c-.21-.83-.59-1.67-1.77-1.67H289.38l-.17,1.72a3.37,3.37,0,0,1,1.84,3.23C290.89,170.38,283.82,226.47,283,234.62Z"/><path class="cls-19" d="M367.24,163.11H345.59a8.37,8.37,0,0,0-7,3.47c-3.85,5.63-4.25,9.93-5.89,17.91-.83,4.06-2.55,18.45-2.88,21.11s-1.88,13.7-1.16,21.36c.45,4.8,2,8.67,3.18,9.94,1.77,1.93,4.08,2.52,8.31,2.52h15.58c2.43,0,3.86-2.34,4.53-4s1.33-7.56,1.67-9.89,3.88-28.43,3.93-30a6.27,6.27,0,0,0-.39-3.32,2.2,2.2,0,0,0-2-.92c-.89,0-13.21-.17-13.21-.17s-1.08,8-1.16,8.74-.36,2.32.41,3.24a2.37,2.37,0,0,0,2.07.7l2.38,0s-1.13,8.89-1.39,11.31c-.45,4.36-1.6,8.83-5.72,8.83-6.36,0-5.3-9.11-3.94-19.11.23-1.63,2.36-17,2.36-17,.82-5.79,2.2-10.67,6.33-10.67,7.42,0,9.72.08,10.29.08,1.66,0,3.27.17,3.91-2.91C366.14,172.92,367.24,163.11,367.24,163.11Z"/><path class="cls-20" d="M439.14,163.11H409.7l-.3,1.92a3.08,3.08,0,0,1,1.83,1.74,8,8,0,0,1,.27,4c-.17,1.26-8.39,62.88-8.43,63.37-.17,1.86-.13,3.2.73,4.17A2.66,2.66,0,0,0,406,239h23.71a2.56,2.56,0,0,0,1.81-.93,4.44,4.44,0,0,0,.87-2.26l2.28-16.61h-.77a12.23,12.23,0,0,1-.22,1.87,4,4,0,0,1-3.33,2.89c-1.11,0-13,.12-13,.12l2.35-19H430a2.81,2.81,0,0,0,2.38-1.12,8.68,8.68,0,0,0,1-3.32c.07-.63,1.26-9.82,1.26-9.82l-13.11.06,1.81-14.31,11.6.09a2.44,2.44,0,0,0,2.12-1.18,11.06,11.06,0,0,0,.87-3C438.05,171.63,439.14,163.11,439.14,163.11Z"/><path class="cls-21" d="M276.93,235.7a7.16,7.16,0,0,1-.89-3.08c-.07-.93-1.81-66.75-1.81-67.27a2.57,2.57,0,0,0-.63-1.72c-.42-.35-.58-.51-1.82-.51H254.49l-.17,1.72a3.37,3.37,0,0,1,1.84,3.24c-.16,2.3-7.1,25.63-7.1,25.63s-11.9,40.17-12.21,41.24c-.4,1.4-.33,2.68.37,3.37a2.24,2.24,0,0,0,1.85.64h10.68l.2-1.91a3.91,3.91,0,0,1-1.85-3.43,39.41,39.41,0,0,1,1.57-7.35l1.44-5.61h12.5s.14,14.42.15,15.16c0,1.69.35,2.23.78,2.6a2.44,2.44,0,0,0,1.78.47l12,0,.25-1.8A3.27,3.27,0,0,1,276.93,235.7Zm-21.27-28.33L261.9,183l.3,24.33Z"/><path class="cls-22" d="M475,202.27c1.17-1.53,4.91-7.12,6-20.85.77-9.6-.41-15-2.45-16.85-1.64-1.46-4.43-1.46-5.48-1.46H446.75l-.61,2a2.59,2.59,0,0,1,2,1.5,5.12,5.12,0,0,1,.23,3c-.26,1.77-8.25,64.47-8.43,65.9a3.53,3.53,0,0,0,.54,2.5,2.22,2.22,0,0,0,1.82.9h12.61l.31-1.87a3.11,3.11,0,0,1-1.92-2c-.46-1.37-.38-2.55-.09-4.76.26-2,3.42-25.22,3.42-25.22l2.43,0s5.43,31.25,5.61,32c.28,1.28.73,1.82,2.13,1.82h7.27a2.3,2.3,0,0,0,2.25-1.82c.21-.82,1.79-13,1.79-13a5.85,5.85,0,0,1-2.25-.28c-1-.43-1.24-1.21-1.64-2.4l-3.83-16.17A8.42,8.42,0,0,0,475,202.27Zm-7.45-17.35c-.32,2.74-.86,4.75-2.18,6.23a3.45,3.45,0,0,1-2.66,1.2h-3.18l1.71-14.62H465c1.37,0,2.32.54,2.46,1.38A22.53,22.53,0,0,1,467.54,184.92Z"/></g><g id="Layer_10" data-name="Layer 10"><path class="cls-23" d="M6.64,143.2h142a15.25,15.25,0,0,0,4.9-.58,44.44,44.44,0,0,0,6.22-3.53s15.33-9.57,16.5-10.21,6.93-4,7.48-4.15a1.85,1.85,0,0,1,1.43.39,8.76,8.76,0,0,1,1.46,1.46,1,1,0,0,1,0,1l-1.72,3.6.45.35s6.49-7.32,7-7.81a2.6,2.6,0,0,1,2.14-.26c.55.13,2.3.49,2.63,1.75a2.8,2.8,0,0,1-.46,2.34c-.22.51-12.15,23.59-12.15,23.59l29.72-28.88A2.23,2.23,0,0,1,216,122c.51.13,3.27.59,3.14,2.24a12,12,0,0,1-1.75,5c-1,1.88-5.15,6.58-5.8,7.49s-9.76,11.67-11.51,14.42-5,7.91-5.41,9.08a5.65,5.65,0,0,0,0,4.14c0,.07-3.63,2.53-3.63,2.53s-1.61-5-.47-7.8a75.51,75.51,0,0,1,4.19-7.89c1.3-2.39,13-16.39,13-16.39S199,143,195.21,146.44s-13.52,12.64-13.71,13-.36.48-.72.42-4.08-.07-5.15-1,.65-3,1.4-4,11.63-21.74,11.63-21.74-13.45,14.45-14.42,15.42-15.56,16.66-15.56,16.66l-4.18-2.3,17.44-20.32s5.7-6.9,6-7.16a1.42,1.42,0,0,0,.45-1.14c-.07-.29-.62-.32-1-.09s-4.95,3.27-6.32,4-8.55,4.4-9,4.66-4.9,2.47-5.22,2.69-1.59.75-2.11,1a4.55,4.55,0,0,1-1.59.39,15.32,15.32,0,0,1-2.88.22c-1,0-144.65,0-144.65,0Z"/><path class="cls-24" d="M444.33,142.3a11.38,11.38,0,0,0-3.85.5c-.44.22-12.79,5.32-15.53,6a28,28,0,0,1-6.38.95c-1.92,0-2.95-1.23-2.84-1.66s9.88-3.63,12.51-4.89,5.51-2.4,7.19-4.28c-.28-2.44-4-6.89-11.78-5.43a15.52,15.52,0,0,0-10.76,7.84,14.94,14.94,0,0,0-1.18,2.58l-3.82,1.21a.18.18,0,0,1-.19-.26c.45-.79,1.6-2.87,2.43-4.35a7.16,7.16,0,0,0,.59-5.48,5.48,5.48,0,0,0-4.54-2.48c-2.53,0-4.67-.16-10.9,4a3.09,3.09,0,0,0-3.32-3.14,8.56,8.56,0,0,0-5.21,1.59c-3.22,2.09-15.95,10.92-17,11.55a7.43,7.43,0,0,1-3.5.89c-1.24,0-2.07-1.79-1.28-4.26a71.2,71.2,0,0,1,4.64-9.84,1.44,1.44,0,0,0,.21-1.34.44.44,0,0,0-.45-.25c-1,0-3.07,0-3.6,0l-.21.09c-.94,1.07-9.41,10.74-10.44,11.78a16.19,16.19,0,0,1-6.11,3.8c-2.58,1-10,.19-13.45.19S324,147,324,147s22.29-10,22.62-10.26.44-.55.66-1.32a18.29,18.29,0,0,0,.32-2.52s-22.55.38-22.39.33a25.39,25.39,0,0,1,.66,3.62l9.44.16s-29.41,14-30.89,14.61-2.78,1.21-3.28.46,0-1.67.63-2.44,5.11-5.21,8-8.68c.52-.62,1.59-2.28,2.06-3a.48.48,0,0,0-.12-.65l-3-2.24a33.48,33.48,0,0,0-2.85-1.93c-3.07-1.47-7.51-.44-10.1,1-3.71,2.06-10.06,6.57-12.2,9-1.87-.61-7.4-.5-10.17-.07a.43.43,0,0,1-.42-.68c1.15-1.66,3-4.37,2.74-6-.23-1.41-2.11-3.85-9.81-3.13-5.7.53-22.54,8.65-24.31,14.27.17-.09-9.42,5-11.46,4.23s.6-3.34,2.61-5.27a69,69,0,0,0,7-8.4c.33-.66-3.44-3.18-4.74-4a10.31,10.31,0,0,0-7.17-1.11c-2.74.66-8.27,2.65-11.85,6.09-3.3,3.18-6.85,5.42-8,10.93-1,4.6,5.35,5.25,8.51,4.55a59.15,59.15,0,0,0,7.63-2.69c-.28,3.24,1.7,4,2.3,4.23a11,11,0,0,0,6.59-.33c2.86-1.1,9.94-3.65,9.94-3.65a6.25,6.25,0,0,0,2.85,1.62,14.31,14.31,0,0,0,3.95.11c-1,.88-9.67,8.12-12.19,12.49-2.2,3.84-2.69,9.86.88,12.21s7.73-2,9.39-3.35c2-1.59,10.76-11.69,14-16.3,2.73-3.83,5.5-8.06,6.37-9.4a1.27,1.27,0,0,1,.77-.55c1.38-.34,5.23-1.28,6.31-1.41a25.51,25.51,0,0,1,5.1,0c-.77,2-.11,5.16,1.87,6.15s6.75.77,9.22-.22,4.67-1.92,4.67-1.92.16,4.43,4.22,4.43a25.4,25.4,0,0,0,9.28-1.91,35,35,0,0,1,9.55-2.69c4.61-.55,18.77.17,21.35.17s8.47.24,9.3,0a80.24,80.24,0,0,0,7.77-4.68,10.68,10.68,0,0,0,2.58-2.86s-.93,6.92,2.74,8.35,10.93-2.58,13.51-4.39,12.95-9.23,12.95-9.23L382.91,145a6.09,6.09,0,0,0,3.24,3.68c.32.05.82-.55,1.64-1.15s9.39-7.05,11.25-8.24c1.7-1.08,4.83-2.8,6.15-2s-1,4.17-1,4.17-1.92,3-2.36,3.79-1.43,3.61.27,4.55a5.4,5.4,0,0,0,3.84.44c1.6-.22,5-1.1,5-1.1s.6,4.61,7.13,4.61a31.91,31.91,0,0,0,11.86-2.41l11.8-4.61H577l1.22-4.06Zm-27.43-.13a11.81,11.81,0,0,1,6-4.57c3.52-1.23,5.63-.17,6.42.37a.25.25,0,0,1-.07.43l-12.11,4.09A.22.22,0,0,1,416.9,142.17Zm-197.16,7c-3.15,1.15-5.2,1.9-6.4.94-.65-.52-.39-1.34.35-2.58a27.18,27.18,0,0,1,6.19-6.1A41.89,41.89,0,0,1,226,138c2.16-.95,5.65-1.55,6.51-.45,1.63,2-1.27,4.14-3.27,6.15A27,27,0,0,1,219.74,149.18Zm38.59,5.48c-.8,1.09-2.24,3.05-3.49,4.69-1.84,2.42-7.8,9.68-9.62,11.5a17.83,17.83,0,0,1-3.91,3,.34.34,0,0,1-.5-.22c-.15-.73-.12-2.46,1.91-5.52a44.79,44.79,0,0,1,10.45-10.65l4.89-3.07A.2.2,0,0,1,258.33,154.66Zm10.32-17.41c-.18.23-.68.78-1.11,1.21s-5.46,4.6-6.86,5.7a47.19,47.19,0,0,1-8.58,4.36c-1.89.64-5,1-5.42.18-.22-.54,1.25-1.95,1.94-2.64a38.84,38.84,0,0,1,4.76-3c1.09-.61,7.61-3.82,10.51-5.05a9,9,0,0,1,4.69-.85C268.64,137.14,268.71,137.17,268.65,137.25Zm23.17,11.61c-3.72,1.49-5.91,2.25-6.95,1.37-.64-.54.15-1.71.9-3a26.18,26.18,0,0,1,6.19-6.1,42,42,0,0,1,6.1-3.42c2.15-.94,5.64-1.54,6.51-.45,1.62,2.05-1.28,4.14-3.28,6.16S295.74,147.3,291.82,148.86Z"/></g><g id="Layer_6" data-name="Layer 6"><path class="cls-25" d="M114.39,3.06h8.1l10,19.78,9.93-19.78h8.05v32.2H144V13.5L134.82,32h-4.7l-9.2-18.5V35.26h-6.53Z"/><path class="cls-25" d="M157.63,3.06h24.52v6H164.9v7h15.5v6H164.9v7.13h17.75v6h-25Z"/><path class="cls-25" d="M210.81,5.11a14.92,14.92,0,0,1,6,5.7A16.19,16.19,0,0,1,219,19.16a15.94,15.94,0,0,1-2.19,8.35,15.12,15.12,0,0,1-6.09,5.71,19,19,0,0,1-8.92,2H188.36V3.06H202A18.57,18.57,0,0,1,210.81,5.11ZM207,27.88a8.78,8.78,0,0,0,3.34-3.52,10.9,10.9,0,0,0,1.19-5.15,10.64,10.64,0,0,0-1.26-5.2,9.16,9.16,0,0,0-3.45-3.56,9.65,9.65,0,0,0-5-1.27h-6.25v20h6.58A9.27,9.27,0,0,0,207,27.88Z"/><path class="cls-25" d="M223.73,3.06H231v32.2h-7.27Z"/><path class="cls-25" d="M261.91,35.26,259.38,29h-14.9L242,35.26h-7.5l14-32.2h7.5l13.76,32.2Zm-15-12.1H257L252,10.65Z"/><path class="cls-25" d="M291.05,29.08a9.07,9.07,0,0,0,6.79,2.5,8.92,8.92,0,0,0,6.71-2.5,9.58,9.58,0,0,0,2.44-7v-19h4.42V22.11q0,6.3-3.61,9.89t-10,3.58q-6.4,0-10-3.58t-3.63-9.89v-19h4.41V22.11A9.55,9.55,0,0,0,291.05,29.08Z"/><path class="cls-25" d="M341.65,5.91a10.05,10.05,0,0,1,3.29,8q0,5.39-3.31,8.35t-9.29,3h-8v10h-4.41V3.06h12.42Q338.36,3.06,341.65,5.91ZM338.5,19.42a6.56,6.56,0,0,0,2.21-5.36,6.3,6.3,0,0,0-2.21-5.22,9.88,9.88,0,0,0-6.35-1.78l-7.82.05V21.23h7.82Q336.29,21.23,338.5,19.42Z"/><path class="cls-25" d="M350.78,3.06h4.42v28.2h14.07v4H350.78Z"/><path class="cls-25" d="M397.5,5a16.29,16.29,0,0,1,6.14,5.91,15.74,15.74,0,0,1,2.25,8.26,16,16,0,0,1-2.25,8.3,16.39,16.39,0,0,1-6.14,6,17.8,17.8,0,0,1-17.07,0,16.32,16.32,0,0,1-6.14-6,16,16,0,0,1-2.26-8.3,15.75,15.75,0,0,1,2.26-8.26A16.23,16.23,0,0,1,380.41,5,18,18,0,0,1,397.5,5ZM382.77,8.4a12.58,12.58,0,0,0-4.57,4.48,11.85,11.85,0,0,0-1.7,6.24,11.91,11.91,0,0,0,1.7,6.25,12.72,12.72,0,0,0,4.57,4.53A12.17,12.17,0,0,0,389,31.58a11.91,11.91,0,0,0,6.19-1.68,12.68,12.68,0,0,0,4.5-4.53,12.08,12.08,0,0,0,1.68-6.25,12,12,0,0,0-1.68-6.24,12.55,12.55,0,0,0-4.5-4.48A12,12,0,0,0,389,6.74,12.25,12.25,0,0,0,382.77,8.4Z"/><path class="cls-25" d="M435.37,35.26,432,27.44H415l-3.36,7.82H407L421.3,3.06h4.6l14.26,32.2ZM416.75,23.44h13.52L423.46,7.8Z"/><path class="cls-25" d="M466.45,5.16a15.45,15.45,0,0,1,6,5.77,16,16,0,0,1,2.16,8.23,15.82,15.82,0,0,1-2.19,8.24,15.62,15.62,0,0,1-6,5.77,17.58,17.58,0,0,1-8.56,2.09h-13V3.06H458A17.24,17.24,0,0,1,466.45,5.16Zm-2.3,24.54a11.58,11.58,0,0,0,4.32-4.33,12.11,12.11,0,0,0,1.59-6.16A12.13,12.13,0,0,0,468.45,13a11.82,11.82,0,0,0-4.39-4.35,12.27,12.27,0,0,0-6.19-1.59h-8.6v24.2h8.78A12.12,12.12,0,0,0,464.15,29.7Z"/></g></svg>